<svg xmlns="http://www.w3.org/2000/svg" width="154" height="32" viewBox="0 0 154 32"><g transform="translate(32,-5)translate(62.5,20)rotate(0)translate(-62.5,-20)" opacity="1"><path transform="translate(6,0)rotate(0)" d="M2.57 30L2.57 9.22L5.95 9.22L5.95 30L2.57 30ZM7.10 9.22L8.54 9.22L8.54 9.22Q9.87 9.22 11.16 9.64L11.16 9.64L11.16 9.64Q12.46 10.07 13.49 10.91L13.49 10.91L13.49 10.91Q14.52 11.76 15.15 12.96L15.15 12.96L15.15 12.96Q15.79 14.16 15.79 15.65L15.79 15.65L15.79 15.65Q15.79 17.23 15.25 18.51L15.25 18.51L15.25 18.51Q14.72 19.79 13.76 20.67L13.76 20.67L13.76 20.67Q12.80 21.54 11.45 22.02L11.45 22.02L11.45 22.02Q10.09 22.50 8.46 22.50L8.46 22.50L7.10 22.50L7.10 20.02L9.05 20.02L9.05 20.02Q9.67 20.02 10.28 19.81L10.28 19.81L10.28 19.81Q10.88 19.60 11.39 19.12L11.39 19.12L11.39 19.12Q11.90 18.64 12.21 17.78L12.21 17.78L12.21 17.78Q12.52 16.92 12.52 15.65L12.52 15.65L12.52 15.65Q12.52 15.14 12.38 14.48L12.38 14.48L12.38 14.48Q12.24 13.82 11.80 13.21L11.80 13.21L11.80 13.21Q11.36 12.61 10.57 12.20L10.57 12.20L10.57 12.20Q9.78 11.79 8.49 11.79L8.49 11.79L7.10 11.79L7.10 9.22ZM28.60 9.25L35.81 30L32.32 30L26.93 14.44L21.49 30L17.97 30L25.24 9.25L28.60 9.25ZM25.01 23.40L28.79 23.40L29.61 25.69L24.23 25.69L25.01 23.40ZM39.26 30L39.26 9.22L42.64 9.22L42.64 30L39.26 30ZM48.62 21.82L53.36 30L49.78 30L45.86 22.47L45.86 22.47Q45.77 22.47 45.67 22.49L45.67 22.49L45.67 22.49Q45.58 22.50 45.38 22.50L45.38 22.50L45.38 22.50Q45.18 22.50 44.80 22.50L44.80 22.50L44.80 22.50Q44.42 22.50 43.80 22.50L43.80 22.50L43.80 20.02L45.72 20.02L45.72 20.02Q46.34 20.02 46.96 19.81L46.96 19.81L46.96 19.81Q47.58 19.60 48.08 19.12L48.08 19.12L48.08 19.12Q48.59 18.64 48.90 17.78L48.90 17.78L48.90 17.78Q49.21 16.92 49.21 15.65L49.21 15.65L49.21 15.65Q49.21 15.14 49.07 14.48L49.07 14.48L49.07 14.48Q48.93 13.82 48.49 13.21L48.49 13.21L48.49 13.21Q48.06 12.61 47.27 12.20L47.27 12.20L47.27 12.20Q46.48 11.79 45.18 11.79L45.18 11.79L43.80 11.79L43.80 9.22L45.24 9.22L45.24 9.22Q46.56 9.22 47.86 9.64L47.86 9.64L47.86 9.64Q49.16 10.07 50.18 10.91L50.18 10.91L50.18 10.91Q51.21 11.76 51.85 12.96L51.85 12.96L51.85 12.96Q52.48 14.16 52.48 15.65L52.48 15.65L52.48 15.65Q52.48 17.91 51.44 19.48L51.44 19.48L51.44 19.48Q50.40 21.06 48.62 21.82L48.62 21.82ZM57.00 30L57.00 9.22L60.38 9.22L60.38 30L57.00 30ZM66.36 21.82L71.10 30L67.52 30L63.60 22.47L63.60 22.47Q63.51 22.47 63.41 22.49L63.41 22.49L63.41 22.49Q63.32 22.50 63.12 22.50L63.12 22.50L63.12 22.50Q62.92 22.50 62.54 22.50L62.54 22.50L62.54 22.50Q62.16 22.50 61.54 22.50L61.54 22.50L61.54 20.02L63.46 20.02L63.46 20.02Q64.08 20.02 64.70 19.81L64.70 19.81L64.70 19.81Q65.32 19.60 65.83 19.12L65.83 19.12L65.83 19.12Q66.33 18.64 66.64 17.78L66.64 17.78L66.64 17.78Q66.95 16.92 66.95 15.65L66.95 15.65L66.95 15.65Q66.95 15.14 66.81 14.48L66.81 14.48L66.81 14.48Q66.67 13.82 66.23 13.21L66.23 13.21L66.23 13.21Q65.80 12.61 65.01 12.20L65.01 12.20L65.01 12.20Q64.22 11.79 62.92 11.79L62.92 11.79L61.54 11.79L61.54 9.22L62.98 9.22L62.98 9.22Q64.30 9.22 65.60 9.64L65.60 9.64L65.60 9.64Q66.90 10.07 67.93 10.91L67.93 10.91L67.93 10.91Q68.95 11.76 69.59 12.96L69.59 12.96L69.59 12.96Q70.22 14.16 70.22 15.65L70.22 15.65L70.22 15.65Q70.22 17.91 69.18 19.48L69.18 19.48L69.18 19.48Q68.14 21.06 66.36 21.82L66.36 21.82ZM74.38 19.51L74.38 19.51L74.38 19.51Q74.38 17.00 74.98 15.07L74.98 15.07L74.98 15.07Q75.59 13.14 76.67 11.80L76.67 11.80L76.67 11.80Q77.76 10.46 79.24 9.74L79.24 9.74L79.24 9.74Q80.72 9.02 82.47 8.91L82.47 8.91L82.47 11.73L82.47 11.73Q81.51 11.84 80.66 12.32L80.66 12.32L80.66 12.32Q79.82 12.80 79.20 13.73L79.20 13.73L79.20 13.73Q78.58 14.66 78.21 16.10L78.21 16.10L78.21 16.10Q77.84 17.54 77.82 19.51L77.82 19.51L77.82 19.51Q77.84 21.51 78.21 22.94L78.21 22.94L78.21 22.94Q78.58 24.36 79.21 25.32L79.21 25.32L79.21 25.32Q79.84 26.28 80.69 26.77L80.69 26.77L80.69 26.77Q81.54 27.27 82.47 27.35L82.47 27.35L82.47 30.14L82.47 30.14Q80.75 30.03 79.25 29.31L79.25 29.31L79.25 29.31Q77.76 28.59 76.67 27.25L76.67 27.25L76.67 27.25Q75.59 25.91 74.98 23.97L74.98 23.97L74.98 23.97Q74.38 22.02 74.38 19.51ZM83.59 11.70L83.59 8.91L83.59 8.91Q85.31 9.00 86.79 9.73L86.79 9.73L86.79 9.73Q88.27 10.46 89.36 11.80L89.36 11.80L89.36 11.80Q90.45 13.14 91.07 15.07L91.07 15.07L91.07 15.07Q91.69 17.00 91.69 19.51L91.69 19.51L91.69 19.51Q91.69 22.02 91.07 23.97L91.07 23.97L91.07 23.97Q90.45 25.91 89.36 27.25L89.36 27.25L89.36 27.25Q88.27 28.59 86.81 29.31L86.81 29.31L86.81 29.31Q85.34 30.03 83.59 30.14L83.59 30.14L83.59 27.35L83.59 27.35Q84.55 27.24 85.40 26.74L85.40 26.74L85.40 26.74Q86.24 26.25 86.86 25.31L86.86 25.31L86.86 25.31Q87.49 24.36 87.85 22.94L87.85 22.94L87.85 22.94Q88.22 21.51 88.25 19.51L88.25 19.51L88.25 19.51Q88.22 17.51 87.85 16.09L87.85 16.09L87.85 16.09Q87.49 14.66 86.85 13.72L86.85 13.72L86.85 13.72Q86.22 12.77 85.37 12.28L85.37 12.28L85.37 12.28Q84.52 11.79 83.59 11.70L83.59 11.70ZM94.43 9.22L110.24 9.22L110.24 11.53L104.04 11.53L104.04 30L100.63 30L100.63 11.53L94.43 11.53L94.43 9.22Z" fill="#3B3B3B"/></g><g transform="translate(0,0)translate(16.5,16.5)rotate(0)translate(-16.5,-16.5) scale(0.35964997782308805,0.35964997782308805)" opacity="1"><defs class="defs"/><path transform="translate(-2.1174804996184133,-2.16)" d="M92.252,57.532c-5.124,-0.968 -10.132,-1.584 -15.012,-1.937c1.568,-15.572 0.611,-32.244 -7.992,-41.684c-7.2,-7.911 -12.928,-11.751 -17.504,-11.751c-2.044,0 -3.556,0.78 -4.668,1.796c-0.224,-0.032 -0.452,-0.044 -0.684,0.004c-0.328,0.068 -3.3,0.756 -7.364,4.076c-1.748,1.428 -2.752,3.336 -2.9,5.516c-0.376,5.56 4.78,11.264 5.368,11.896c0.388,0.416 0.92,0.632 1.464,0.632c0.256,0 0.516,-0.048 0.76,-0.148c0.768,-0.316 1.264,-1.08 1.24,-1.916c-0.072,-2.34 0.256,-4.992 0.708,-6.02c0.084,0.048 0.172,0.052 0.256,0.084c1.62,1.66 4.072,2.576 7.256,2.576c0.164,0 0.328,0 0.484,-0.004l4.313,30.212c0.131,0.907 0.859,1.6 1.764,1.704l7.472,0.8l-0.084,1.86c-36.845,0.04 -63.665,14.676 -63.985,14.856c-0.964,0.536 -1.312,1.752 -0.772,2.721c0.364,0.655 1.048,1.031 1.748,1.031c0.332,0 0.664,-0.084 0.972,-0.252c0.316,-0.172 26.232,-14.252 61.86,-14.336l-1.392,32.504c-0.049,1 0.655,1.876 1.64,2.057c0.116,0.023 0.243,0.031 0.36,0.031c0.848,0 1.623,-0.544 1.899,-1.38c0.392,-1.185 5.132,-15.896 7.312,-32.836c4.789,0.34 9.688,0.896 14.729,1.844c1.092,0.208 2.132,-0.508 2.336,-1.588c0.212,-1.1 -0.5,-2.136 -1.584,-2.348zM55.376,12.664c-0.372,0.376 -0.884,0.588 -1.416,0.588c-0.524,0 -1.044,-0.212 -1.416,-0.588c-0.372,-0.368 -0.584,-0.884 -0.584,-1.408c0,-0.524 0.22,-1.04 0.584,-1.416c0.752,-0.748 2.084,-0.748 2.828,0c0.372,0.376 0.584,0.892 0.584,1.416c0.004,0.528 -0.208,1.04 -0.58,1.408zM68.372,44.876c-0.14,0.024 -0.276,0.04 -0.412,0.04c-0.928,0 -1.76,-0.648 -1.956,-1.592l-3.332,-16c-0.229,-1.084 0.473,-2.14 1.557,-2.368c1.08,-0.228 2.14,0.472 2.359,1.548l3.336,16c0.217,1.084 -0.472,2.148 -1.552,2.372z" fill="#000000" class="fill c1"/></g><g transform="translate(76,8)translate(1,1.5)rotate(0)translate(-1,-1.5)" opacity="1"><path transform="translate(0.7464489677434404,0)rotate(0)" d="" fill="#000000"/></g></svg>